<?xml version="1.0" encoding="utf-8"?>
<!-- Generator: Adobe Illustrator 21.1.0, SVG Export Plug-In . SVG Version: 6.00 Build 0)  -->
<svg version="1.1" id="Layer_1" xmlns="http://www.w3.org/2000/svg" xmlns:xlink="http://www.w3.org/1999/xlink" x="0px" y="0px"
	 viewBox="0 0 289.8 208.2" style="enable-background:new 0 0 289.8 208.2;" xml:space="preserve">
<style type="text/css">
	.st0{fill:#FFFFFF;}
</style>
<rect id="XMLID_3_" x="-264.6" y="-202.4" class="st0" width="800" height="600"/>
<g id="XMLID_208_">
	<g id="XMLID_211_">
		<rect id="XMLID_215_" x="134.5" y="69" class="st0" width="7" height="7"/>
		<rect id="XMLID_214_" x="146.1" y="69" class="st0" width="7" height="7"/>
		<rect id="XMLID_213_" x="134.5" y="58.2" class="st0" width="7" height="7"/>
		<rect id="XMLID_212_" x="146.1" y="58.2" class="st0" width="7" height="7"/>
	</g>
	<polygon id="XMLID_210_" class="st0" points="194.6,63.7 179.4,47.6 179.4,21.8 167.8,21.8 167.8,35.3 143.8,9.8 55.6,110.3 
		143.4,38.1 	"/>
	<polygon id="XMLID_209_" class="st0" points="150.5,113.6 112.6,76 101.9,85.4 150.5,135.6 237.3,35 	"/>
</g>
<g>
	<path class="st0" d="M44.4,195.4c-4.2,4.2-9.7,6.1-15.7,6.1c-15.3,0-21.8-10.5-21.9-21.3c-0.1-10.8,7-21.7,21.9-21.7
		c5.6,0,10.9,2.1,15.1,6.3l-5.2,5c-2.7-2.7-6.4-3.9-10-3.9c-10,0-14.3,7.4-14.2,14.3c0.1,6.8,4,14,14.2,14c3.6,0,7.7-1.5,10.4-4.2
		L44.4,195.4z"/>
	<path class="st0" d="M67.6,188.5H55.9v12.1h-7.8v-41.2c6.5,0,13-0.1,19.4-0.1C87.8,159.3,87.8,188.5,67.6,188.5z M55.9,181.4h11.7
		c10,0,9.9-14.6,0-14.6H55.9V181.4z"/>
	<path class="st0" d="M124.6,200.6h-9.2l-12-13.8h-7.5v13.8h-7.8v-41.3c6.5,0,13.1,0.1,19.6,0.1c9.7,0.1,14.8,6.5,14.8,13.7
		c0,5.7-2.6,11.4-10.4,13l12.5,14.1V200.6z M95.8,166.6v13.2h11.8c4.9,0,7.1-3.3,7.1-6.6c0-3.3-2.2-6.6-7.1-6.6H95.8z"/>
	<path class="st0" d="M168.3,180.2c-0.1,10.7-6.7,21.3-21.2,21.3c-14.5,0-21.2-10.4-21.2-21.3c0-10.8,7-21.7,21.2-21.7
		C161.3,158.6,168.4,169.5,168.3,180.2z M133.6,180.4c0.2,6.8,3.8,14,13.6,14s13.4-7.3,13.5-14.1c0.1-7-3.8-14.7-13.5-14.7
		S133.4,173.5,133.6,180.4z"/>
	<path class="st0" d="M193.5,188.5h-11.7v12.1H174v-41.2c6.5,0,13-0.1,19.4-0.1C213.6,159.3,213.7,188.5,193.5,188.5z M181.8,181.4
		h11.7c10,0,9.9-14.6,0-14.6h-11.7V181.4z"/>
	<path class="st0" d="M221.6,196.9c0,5.6-8.5,5.6-8.5,0C213.1,191.3,221.6,191.3,221.6,196.9z"/>
	<path class="st0" d="M228.2,200.6v-41.2h7.7v41.2H228.2z"/>
	<path class="st0" d="M284.9,180.2c-0.1,10.7-6.7,21.3-21.2,21.3s-21.2-10.4-21.2-21.3c0-10.8,7-21.7,21.2-21.7
		C278,158.6,285.1,169.5,284.9,180.2z M250.2,180.4c0.2,6.8,3.8,14,13.5,14s13.4-7.3,13.5-14.1c0.1-7-3.8-14.7-13.5-14.7
		S250.1,173.5,250.2,180.4z"/>
</g>
</svg>
